<?xml version="1.0" encoding="UTF-8" standalone="no"?><svg xmlns="http://www.w3.org/2000/svg" xmlns:xlink="http://www.w3.org/1999/xlink" contentStyleType="text/css" height="166px" preserveAspectRatio="none" style="width:343px;height:166px;background:#FFFFFF;" version="1.1" viewBox="0 0 343 166" width="343px" zoomAndPan="magnify"><defs/><g><!--MD5=[7442f3b126ee602ae02566c1a49e158a]
cluster api--><g id="cluster_api"><path d="M8.5,6 L30.5,6 A3.75,3.75 0 0 1 33,8.5 L40,29.6094 L333.5,29.6094 A2.5,2.5 0 0 1 336,32.1094 L336,156.5 A2.5,2.5 0 0 1 333.5,159 L8.5,159 A2.5,2.5 0 0 1 6,156.5 L6,8.5 A2.5,2.5 0 0 1 8.5,6 " fill="none" style="stroke:#000000;stroke-width:1.5;"/><line style="stroke:#000000;stroke-width:1.5;" x1="6" x2="40" y1="29.6094" y2="29.6094"/><text fill="#000000" font-family="sans-serif" font-size="14" font-weight="bold" lengthAdjust="spacing" textLength="21" x="10" y="22.5332">api</text></g><!--MD5=[593705688799fa3b77dc3d2513ca7174]
class api.Server--><g id="elem_api.Server"><rect codeLine="2" fill="#F1F1F1" height="100.8281" id="api.Server" rx="2.5" ry="2.5" style="stroke:#181818;stroke-width:0.5;" width="298" x="22" y="42"/><ellipse cx="145.75" cy="58" fill="#7FFFD4" rx="11" ry="11" style="stroke:#181818;stroke-width:1.0;"/><path d="M143.8594,62.5625 Q143.6406,62.8281 143.5,62.9063 Q143.3594,62.9844 143.1719,62.9844 Q142.7813,62.9844 142.5313,62.7188 Q142.2969,62.4531 142.2969,61.8594 L142.2969,60.7031 Q142.2969,60.0938 142.5313,59.8438 Q142.7813,59.5781 143.1719,59.5781 Q143.4688,59.5781 143.6719,59.7344 Q143.875,59.8906 143.9844,60.2656 Q144.0938,60.625 144.2031,60.7656 Q144.4531,61.0156 145.0625,61.2813 Q145.6719,61.5469 146.4063,61.5469 Q147.5469,61.5469 148.2656,61.0156 Q148.7344,60.6875 148.7344,60.2188 Q148.7344,59.9063 148.5156,59.625 Q148.2969,59.3438 147.7813,59.1719 Q147.4531,59.0469 146.2969,58.8281 Q144.9063,58.5625 144.1875,58.2031 Q143.4688,57.8438 143.0469,57.1875 Q142.6406,56.5156 142.6406,55.7344 Q142.6406,54.5156 143.6563,53.6094 Q144.6875,52.6875 146.3281,52.6875 Q146.9844,52.6875 147.5313,52.8281 Q148.0938,52.9688 148.5625,53.2656 Q148.8906,52.9531 149.2188,52.9531 Q149.5938,52.9531 149.8281,53.2188 Q150.0625,53.4688 150.0625,54.0781 L150.0625,55.3594 Q150.0625,55.9688 149.8281,56.2344 Q149.5938,56.4844 149.2188,56.4844 Q148.9063,56.4844 148.6719,56.2969 Q148.4844,56.1563 148.3906,55.7344 Q148.3125,55.3125 148.1719,55.125 Q147.9219,54.8125 147.4375,54.6094 Q146.9688,54.3906 146.3281,54.3906 Q145.4063,54.3906 144.875,54.8125 Q144.3438,55.2344 144.3438,55.7031 Q144.3438,56.0156 144.5625,56.3125 Q144.7813,56.6094 145.2031,56.7813 Q145.4844,56.8906 146.7813,57.1563 Q148.0938,57.4063 148.7969,57.7188 Q149.5,58.0156 149.9688,58.6719 Q150.4375,59.3281 150.4375,60.2344 Q150.4375,61.5 149.5469,62.25 Q148.3594,63.25 146.5313,63.25 Q145.8281,63.25 145.1563,63.0781 Q144.5,62.9063 143.8594,62.5625 Z " fill="#000000"/><text fill="#000000" font-family="sans-serif" font-size="14" lengthAdjust="spacing" textLength="42" x="166.25" y="63.7285">Server</text><line style="stroke:#181818;stroke-width:0.5;" x1="23" x2="319" y1="74" y2="74"/><rect fill="none" height="6" style="stroke:#C82930;stroke-width:1.0;" width="6" x="30" y="85.3047"/><text fill="#000000" font-family="sans-serif" font-size="14" lengthAdjust="spacing" textLength="145" x="42" y="92.5332">httpServer *http.Server</text><line style="stroke:#181818;stroke-width:0.5;" x1="23" x2="319" y1="99.6094" y2="99.6094"/><ellipse cx="33" cy="113.9141" fill="#84BE84" rx="3" ry="3" style="stroke:#038048;stroke-width:1.0;"/><text fill="#000000" font-family="sans-serif" font-size="14" lengthAdjust="spacing" textLength="272" x="42" y="118.1426">Run(port string, handler http.Handler) error</text><ellipse cx="33" cy="131.5234" fill="#84BE84" rx="3" ry="3" style="stroke:#038048;stroke-width:1.0;"/><text fill="#000000" font-family="sans-serif" font-size="14" lengthAdjust="spacing" textLength="225" x="42" y="135.752">Shutdown(ctx context.Context) error</text></g><!--MD5=[91eb328cc30a124c8896cb1d982201d2]
@startuml
namespace api {
    class Server << (S,Aquamarine) >> {
        - httpServer *http.Server

        + Run(port string, handler http.Handler) error
        + Shutdown(ctx context.Context) error

    }
}


@enduml

PlantUML version 1.2022.7(Mon Aug 22 20:01:30 MSK 2022)
(GPL source distribution)
Java Runtime: Java(TM) SE Runtime Environment
JVM: Java HotSpot(TM) 64-Bit Server VM
Default Encoding: Cp1251
Language: ru
Country: RU
--></g></svg>